<svg width="82" height="2425" viewBox="0 0 82 2425" fill="none" xmlns="http://www.w3.org/2000/svg">
<rect x="0.5" y="1946.5" width="81" height="464" rx="40.5" stroke="#FFAD0D"/>
<rect x="0.5" y="14.5" width="81" height="464" rx="40.5" stroke="#FFAD0D"/>
<rect x="0.5" y="497.5" width="81" height="464" rx="40.5" stroke="#FFAD0D"/>
<rect x="0.5" y="980.5" width="81" height="464" rx="40.5" stroke="#FFAD0D"/>
<rect x="0.5" y="1463.5" width="81" height="464" rx="40.5" stroke="#FFAD0D"/>
<path d="M41 0.666667C33.6362 0.666666 27.6667 6.6362 27.6667 14C27.6667 21.3638 33.6362 27.3333 41 27.3333C48.3638 27.3333 54.3333 21.3638 54.3333 14C54.3333 6.6362 48.3638 0.666667 41 0.666667ZM40.9999 2397.67C33.6361 2397.67 27.6666 2403.64 27.6666 2411C27.6666 2418.36 33.6361 2424.33 40.9999 2424.33C48.3637 2424.33 54.3332 2418.36 54.3332 2411C54.3332 2403.64 48.3637 2397.67 40.9999 2397.67ZM38.5 14L38.4999 2411L43.4999 2411L43.5 14L38.5 14Z" fill="#FFAD0D"/>
</svg>
