<svg width="28" height="2266" viewBox="0 0 28 2266" fill="none" xmlns="http://www.w3.org/2000/svg">
<path d="M14 0.666667C6.6362 0.666666 0.666667 6.6362 0.666667 14C0.666666 21.3638 6.6362 27.3333 14 27.3333C21.3638 27.3333 27.3333 21.3638 27.3333 14C27.3333 6.6362 21.3638 0.666667 14 0.666667ZM13.9999 2238.67C6.63611 2238.67 0.666569 2244.64 0.666569 2252C0.666569 2259.36 6.6361 2265.33 13.9999 2265.33C21.3637 2265.33 27.3332 2259.36 27.3332 2252C27.3332 2244.64 21.3637 2238.67 13.9999 2238.67ZM11.5 14L11.4999 2252L16.4999 2252L16.5 14L11.5 14Z" fill="#FFAD0D"/>
</svg>
